<svg width="48" height="48" viewBox="0 0 48 48" fill="none" xmlns="http://www.w3.org/2000/svg">
<rect width="48" height="48" fill="#D8D8D8" fill-opacity="0.01"/>
<circle cx="24" cy="24" r="24" fill="#FD8B1D"/>
<circle cx="24" cy="24" r="20.25" fill="white"/>
<path fill-rule="evenodd" clip-rule="evenodd" d="M36.7462 21.1635L29.0136 20.2453C28.8504 19.09 28.3691 18.1953 27.5677 17.5595C26.7669 16.925 25.7745 16.6074 24.5894 16.6074C21.8021 16.6074 20.1306 18.8255 19.5736 23.2641C19.5043 23.8795 19.4696 24.4591 19.4696 25.0052C19.4696 28.3497 20.9647 30.2044 23.9575 30.569C24.8616 30.6827 25.743 30.535 26.6012 30.1235C27.5519 29.6916 28.1788 29.0639 28.48 28.2434L24.8874 27.8325L25.554 22.4331L36.75 23.8072L35.0394 37.5L29.7709 36.8457V34.3663C28.1435 35.851 26.0732 36.5936 23.5618 36.5936C21.6553 36.5936 19.8527 36.2272 18.1553 35.4988C16.3881 34.7469 14.9352 33.6761 13.7954 32.2847C12.098 30.1859 11.25 27.6224 11.25 24.5888C11.25 23.8604 11.2966 23.1072 11.3892 22.3324C11.8782 18.343 13.4476 15.2772 16.0989 13.1327C18.2612 11.378 20.9124 10.5 24.0513 10.5C28.0276 10.5 31.2138 11.6276 33.6086 13.8833C35.6298 15.7758 36.6763 18.2021 36.7462 21.1635Z" fill="#277CD9"/>
</svg>
