<svg width="48" height="48" viewBox="0 0 48 48" fill="none" xmlns="http://www.w3.org/2000/svg">
<g clip-path="url(#clip0_2212_1365)">
<path d="M48 23.986C48 37.2503 37.0961 48 23.6438 48C12.2089 48 2.61983 40.2325 0 29.7566C4.76625 29.7029 9.28697 28.6518 13.3677 26.8177V17.4718C13.3677 16.7311 13.1067 16.1897 12.5853 15.8471C12.065 15.5063 11.14 15.3343 9.80852 15.3343V14.4685C11.5732 14.4105 13.1913 14.3077 14.6619 14.162C16.1341 14.0159 17.4029 13.796 18.4694 13.5038L18.4917 27.0778C18.4917 27.8475 18.4917 28.6874 18.4917 29.5989C18.4917 30.4835 18.4784 31.3527 18.4486 32.2071C18.4191 33.0627 18.3753 33.86 18.3183 34.6007C18.2597 35.3422 18.1876 35.9682 18.1003 36.4806C19.5476 37.3088 21.1534 37.9922 22.9193 38.5343C24.685 39.0759 26.3338 39.3454 27.8675 39.3454C29.1696 39.3454 30.429 39.1531 31.6441 38.768C32.8599 38.3834 33.9383 37.8207 34.8776 37.0771C35.8184 36.3354 36.5789 35.4242 37.1583 34.3383C37.7365 33.2533 38.0255 32.0249 38.0255 30.655C38.0255 29.4 37.8083 28.2435 37.3738 27.1873C36.9396 26.1307 36.3305 25.2185 35.547 24.4468C34.7647 23.6751 33.8391 23.0704 32.7665 22.6277C31.6932 22.184 30.5202 21.9627 29.2451 21.9627C28.2884 21.9627 27.3116 22.1289 26.3118 22.4581C25.3105 22.7898 24.4058 23.1996 23.5949 23.6868V19.6467C27.9814 15.127 31.0683 9.37282 32.2573 2.96262C26.8282 0.689687 20.5365 0.393839 14.5857 2.62105C7.97488 5.09476 3.14017 10.1728 0.824654 16.2211C3.05526 9.70931 8.11083 4.19753 15.1345 1.56683C20.9995 -0.626753 27.1265 -0.433714 32.4782 1.62682C32.4786 1.62174 32.4808 1.61594 32.4816 1.61158C41.5617 5.09984 48 13.7997 48 23.986ZM24.3352 36.2839C24.9994 37.4114 26.1272 37.9738 27.7187 37.9738C29.3065 37.9738 30.436 37.4114 31.1017 36.2839C31.7667 35.1586 32.0991 33.384 32.0991 30.9589C32.0991 28.5364 31.7667 26.7611 31.1017 25.635C30.436 24.5085 29.3065 23.9468 27.7187 23.9468C26.1269 23.9468 24.9992 24.5085 24.3352 25.635C23.6699 26.7611 23.3375 28.5364 23.3375 30.9589C23.3375 33.384 23.6699 35.1586 24.3352 36.2839ZM17.9888 10.8056C18.6644 10.1559 19.0012 9.34331 19.0012 8.36626C19.0012 7.3897 18.6644 6.5769 17.9888 5.92642C17.316 5.27522 16.4974 4.94985 15.5385 4.94985C14.5786 4.94985 13.7603 5.27522 13.0863 5.92642C12.4114 6.57666 12.0749 7.3897 12.0749 8.36626C12.0749 9.34331 12.4114 10.1559 13.0863 10.8056C13.7603 11.4563 14.5784 11.7819 15.5385 11.7819C16.4977 11.7819 17.316 11.4563 17.9888 10.8056Z" fill="url(#paint0_linear_2212_1365)"/>
</g>
<defs>
<linearGradient id="paint0_linear_2212_1365" x1="9.86496" y1="4.30917" x2="37.4835" y2="43.7528" gradientUnits="userSpaceOnUse">
<stop offset="0.309" stop-color="#2FB4E9"/>
<stop offset="0.4731" stop-color="#008FCA"/>
<stop offset="0.7645" stop-color="#005899"/>
<stop offset="0.8989" stop-color="#004587"/>
</linearGradient>
<clipPath id="clip0_2212_1365">
<rect width="48" height="48" fill="white"/>
</clipPath>
</defs>
</svg>
