<svg width="48" height="48" viewBox="0 0 48 48" fill="none" xmlns="http://www.w3.org/2000/svg">
<circle cx="24" cy="24" r="24" fill="#131C42"/>
<path fill-rule="evenodd" clip-rule="evenodd" d="M21.394 29.9161C22.6812 32.038 24.9548 33.4444 27.5446 33.4444C27.7435 33.4444 27.9406 33.4361 28.1355 33.4199C28.3408 34.0152 28.4536 34.6606 28.4536 35.3333C28.4536 38.4629 26.0117 41 22.9994 41C19.9871 41 17.5452 38.4629 17.5452 35.3333C17.5452 32.7842 19.1652 30.6283 21.394 29.9161ZM27.5446 20.2222C30.5569 20.2222 32.9988 22.7593 32.9988 25.8889C32.9988 29.0185 30.5569 31.5556 27.5446 31.5556C24.5323 31.5556 22.0904 29.0185 22.0904 25.8889C22.0904 22.7593 24.5323 20.2222 27.5446 20.2222ZM18.4542 20.2222C19.6828 20.2222 20.8165 20.6442 21.7283 21.3564C20.8128 22.6196 20.2723 24.1887 20.2723 25.8889C20.2723 26.6923 20.393 27.4664 20.6186 28.192C19.0472 28.7574 17.7202 29.8669 16.8466 31.3037C14.6192 30.5928 13 28.4373 13 25.8889C13 22.7593 15.4419 20.2222 18.4542 20.2222ZM33 7V10.7778C33 14.8241 29.9384 18.1276 26.0907 18.3241L25.3334 18.3355C27.7402 17.0899 29.3639 14.5097 29.3639 11.5708V10.7778H28.6006C25.7718 10.7778 23.2884 12.4647 22.0895 14.9652L22.0916 14.5556C22.0916 10.3827 25.3475 7 29.3639 7H33Z" fill="white"/>
</svg>
